{"title":"La Posesion De Emma Evans *2010* [DVDRip.XviD-miguel] [ENG]","uid":6382075,"size":1311350640,"categoryP":"video","categoryS":"movies","magnet":"?xt=urn:btih:36b3b14bb74fdb418b8f743ac277bbddff0f70d0&amp;dn=La+Posesion+De+Emma+Evans+%2A2010%2A+%5BDVDRip.XviD-miguel%5D+%5BENG%5D&amp;tr=udp%3A%2F%2Ftracker.openbittorrent.com%3A80&amp;tr=udp%3A%2F%2Fopen.demonii.com%3A1337&amp;tr=udp%3A%2F%2Ftracker.coppersurfer.tk%3A6969&amp;tr=udp%3A%2F%2Fexodus.desync.com%3A6969","seeders":1,"leechers":0,"uploader":"miguel1983","files":-1,"time":1305066135,"description":" &lt;a href=&quot;http://img821.imageshack.us/img821/2444/936fulllaposesiondeemma.jpg&quot; rel=&quot;nofollow&quot; target=&quot;_NEW&quot;&gt;http://img821.imageshack.us/img821/2444/936fulllaposesiondeemma.jpg&lt;/a&gt;\n\nCountry.......: Spain\nGenre.........: Horror\nDate release..: 13.10.2010 [World]\nDirector......: Manuel Carballo\nWriters.......: David Munoz\nDuration......: 95 min.\nMore..........: http://www.imdb.com/title/tt1322306\nTrailer.......: http://www.imdb.com/video/screenplay/vi1174968857\nTrailer.......:\n\nPilot :\nAt home EvansÃƒÂ³w inexplicable things happen, and teenage Emma seems to be possessed. A girl is daily visited by a priest who tries to help her, among others. using hypnosis. Hidden camera in the room Emmy record, what happens during these sessions ..\n\nCats :\nDoug Bradley   \t ...  \tFather Ennis (as Douglas Bradley)\nTommy Bastow \t... \tAlex\nStephen Billington \t... \tChristopher\nSophie Vavasseur \t... \tEmma\nRichard Felix \t... \tJohn\nJo Anne Stockham \t... \tLucy\nBrendan Price \t... \tBrian\nClaudia Costas \t... \tJessica\nIsamaya French \t... \tRose\nCristina Cervia \t... \tJessica s Mother\nPere Raich \t... \tSpanish Priest 2\nLazzaro E. Oertli Ortiz \t... \tMark\nFrancesc Ten \t... \tSpanish Priest 1\nEmma Reynolds \t... \tSarah\nJoan Roca \t... \tSpanish Priest 3 \n\nData Technical :\n!!! SAMPLE !!!\nAudio.....: English\nSubtitles.: None\nFormat                           : AVI\nFormat/Info                      : Audio Video Interleave\nFile size                        : 1.22 GiB\nDuration                         : 1h 35mn\nOverall bit rate                 : 1 829 Kbps\nWriting library                  : VirtualDub build 32817/release\nVideo\nID                               : 0\nFormat                           : MPEG-4 Visual\nFormat profile                   : Advanced Simple@L5\nFormat settings, BVOP            : Yes\nFormat settings, QPel            : No\nFormat settings, GMC             : No warppoints\nFormat settings, Matrix          : Custom\nCodec ID                         : XVID\nCodec ID/Hint                    : XviD\nDuration                         : 1h 35mn\nBit rate                         : 1 372 Kbps\nWidth                            : 720 pixels\nHeight                           : 304 pixels\nDisplay aspect ratio             : 2.35:1\nFrame rate                       : 23.976 fps\nColor space                      : YUV\nChroma subsampling               : 4:2:0\nBit depth                        : 8 bits\nScan type                        : Progressive\nBits/(Pixel*Frame)               : 0.261\nStream size                      : 935 MiB (75%)\nWriting library                  : XviD 1.2.1 (UTC 2008-12-04)\nAudio\nID                               : 1\nFormat                           : AC-3\nFormat/Info                      : Audio Coding 3\nMode extension                   : CM (complete main)\nCodec ID                         : 2000\nDuration                         : 1h 35mn\nBit rate mode                    : Constant\nBit rate                         : 448 Kbps\nChannel(s)                       : 6 channels\nChannel positions                : Front: L C R, Side: L R, LFE\nSampling rate                    : 48.0 KHz\nBit depth                        : 16 bits\nStream size                      : 305 MiB (24%)\nAlignment                        : Aligned on interleaves\nInterleave, duration             : 42 ms (1.00 video frame)\nInterleave, preload duration     : 512 ms\n\nScreen : &lt;a href=&quot;\nhttp://img718.imageshack.us/img718/5284/laposesiondeemmaevans20.jpg&quot; rel=&quot;nofollow&quot; target=&quot;_NEW&quot;&gt;\nhttp://img718.imageshack.us/img718/5284/laposesiondeemmaevans20.jpg&lt;/a&gt; &lt;a href=&quot;\nhttp://img96.imageshack.us/img96/5284/laposesiondeemmaevans20.jpg&quot; rel=&quot;nofollow&quot; target=&quot;_NEW&quot;&gt;\nhttp://img96.imageshack.us/img96/5284/laposesiondeemmaevans20.jpg&lt;/a&gt; &lt;a href=&quot;\nhttp://img690.imageshack.us/img690/5284/laposesiondeemmaevans20.jpg&quot; rel=&quot;nofollow&quot; target=&quot;_NEW&quot;&gt;\nhttp://img690.imageshack.us/img690/5284/laposesiondeemmaevans20.jpg&lt;/a&gt; &lt;a href=&quot;\nhttp://img200.imageshack.us/img200/5284/laposesiondeemmaevans20.jpg&quot; rel=&quot;nofollow&quot; target=&quot;_NEW&quot;&gt;\nhttp://img200.imageshack.us/img200/5284/laposesiondeemmaevans20.jpg&lt;/a&gt; &lt;a href=&quot;\nhttp://img651.imageshack.us/img651/5284/laposesiondeemmaevans20.jpg&quot; rel=&quot;nofollow&quot; target=&quot;_NEW&quot;&gt;\nhttp://img651.imageshack.us/img651/5284/laposesiondeemmaevans20.jpg&lt;/a&gt;","torrent":{"xt":"urn:btih:36b3b14bb74fdb418b8f743ac277bbddff0f70d0","amp;dn":"La+Posesion+De+Emma+Evans+%2A2010%2A+%5BDVDRip.XviD-miguel%5D+%5BENG%5D","amp;tr":["udp%3A%2F%2Ftracker.openbittorrent.com%3A80","udp%3A%2F%2Fopen.demonii.com%3A1337","udp%3A%2F%2Ftracker.coppersurfer.tk%3A6969","udp%3A%2F%2Fexodus.desync.com%3A6969"],"infoHash":"36b3b14bb74fdb418b8f743ac277bbddff0f70d0","infoHashBuffer":{"type":"Buffer","data":[54,179,177,75,183,79,219,65,139,143,116,58,194,119,187,221,255,15,112,208]},"announce":[],"urlList":[]}}